# xmcd
#
# Track frame offsets: 
#        150
#        17407
#        36690
#        59180
#        85723
#        100739
#        128839
#        154541
#
# Disc length: 2338 seconds
#
# Revision: 0
# Processed by: cddbd v1.5.2PL0 Copyright (c) Steve Scherf et al.
# Submitted via: ExactAudioCopyFreeDBPlugin 1.0
#
DISCID=61092008
DTITLE=Ronan - Lonesome Wolf
DYEAR=2018
DGENRE=Blues
TTITLE0=Shake 'Em On Down
TTITLE1=Death Letter Blues
TTITLE2=Lonesome Wolf
TTITLE3=Feeling Bad
TTITLE4=Working So Hard
TTITLE5=Shake It
TTITLE6=Too Tired
TTITLE7=In My Time Of Dying
EXTD=
EXTT0=
EXTT1=
EXTT2=
EXTT3=
EXTT4=
EXTT5=
EXTT6=
EXTT7=
PLAYORDER=
